# Blender 4.3.0
# www.blender.org
mtllib collison.mtl
o Cube_Cube.001
v -0.064146 0.003797 -0.008674
v -0.064146 0.003798 -0.000953
v 0.024655 0.019396 -0.019909
v 0.024655 0.019396 0.017499
v -0.064146 -0.004166 -0.008674
v -0.064146 -0.004166 -0.000952
v 0.024655 -0.019179 -0.019909
v 0.024655 -0.019179 0.017499
v -0.018662 0.017175 -0.019531
v -0.064146 0.003797 -0.004813
v -0.018662 0.017175 0.013349
v 0.024655 0.019396 -0.001205
v 0.024655 0.000109 -0.019909
v 0.024655 0.000109 0.017499
v 0.024655 -0.019179 -0.001205
v -0.018662 -0.016733 -0.019531
v -0.018662 -0.016732 0.013349
v -0.064146 -0.004166 -0.004812
v -0.064146 -0.000185 -0.008674
v -0.064146 -0.000185 -0.000952
v -0.018662 0.000221 0.013349
v -0.018662 0.000221 -0.019531
v -0.064146 -0.000185 -0.004812
v -0.018662 -0.016732 -0.003091
v 0.024655 0.000109 -0.001205
v -0.018662 0.017175 -0.003091
v -0.040614 0.010957 -0.015779
v -0.064146 0.003797 -0.002883
v 0.003233 0.019930 0.016824
v 0.024655 0.019396 -0.010556
v 0.024655 0.009752 -0.019909
v 0.024655 -0.009535 0.017499
v 0.024655 -0.019179 -0.010556
v 0.003233 -0.020344 -0.022230
v -0.040614 -0.011722 0.006213
v -0.064146 -0.004166 -0.006744
v -0.064146 -0.002175 -0.008674
v -0.064146 0.001806 -0.000953
v 0.003233 0.019930 -0.022230
v -0.064146 0.003797 -0.006744
v -0.040614 0.010958 0.006212
v 0.024655 0.019396 0.008147
v 0.024655 -0.009535 -0.019909
v 0.024655 0.009753 0.017499
v 0.024655 -0.019179 0.008148
v -0.040614 -0.011723 -0.015779
v 0.003233 -0.020344 0.016824
v -0.064146 -0.004166 -0.002882
v -0.064146 0.001806 -0.008674
v -0.064146 -0.002175 -0.000952
v -0.040614 -0.000382 0.006212
v 0.003233 -0.000206 0.016824
v -0.018662 -0.008255 0.013349
v -0.018662 0.008699 0.013349
v -0.040614 -0.000383 -0.015779
v 0.003187 0.000251 -0.022230
v -0.018662 0.008699 -0.019531
v -0.018662 -0.008255 -0.019531
v -0.064146 0.001806 -0.004812
v -0.064146 -0.002175 -0.004812
v -0.064146 -0.000185 -0.006744
v -0.064146 -0.000185 -0.002883
v -0.040614 -0.011723 -0.004782
v 0.003233 -0.020344 -0.002702
v -0.018662 -0.016732 -0.011311
v -0.018662 -0.016732 0.005129
v 0.024655 -0.009535 -0.001205
v 0.024655 0.009752 -0.001205
v 0.024655 0.000109 -0.010556
v 0.054168 -0.002354 0.029275
v 0.003233 0.019930 -0.002703
v -0.040614 0.010957 -0.004783
v -0.018662 0.017175 -0.011311
v -0.018662 0.017175 0.005129
v -0.040614 0.010957 0.000715
v -0.040614 0.010957 -0.010281
v 0.003233 0.019930 -0.012466
v 0.024655 0.009753 0.008147
v 0.024655 0.009752 -0.010556
v 0.024655 -0.009535 -0.010556
v 0.003233 -0.020344 0.007060
v 0.003233 -0.020344 -0.012466
v -0.040614 -0.011723 -0.010281
v -0.064146 -0.002175 -0.002882
v -0.064146 -0.002175 -0.006744
v -0.064146 0.001806 -0.006744
v 0.003187 -0.008171 -0.022230
v 0.003233 0.009861 -0.022230
v -0.040614 0.005287 -0.015779
v 0.003233 0.009861 0.016824
v 0.003233 -0.010275 0.016824
v -0.040614 -0.006052 0.006213
v -0.040614 0.005288 0.006212
v -0.040614 -0.006053 -0.015779
v -0.064146 0.001806 -0.002883
v -0.040614 -0.011723 0.000715
v 0.024655 -0.009535 0.008148
v 0.003233 0.019930 0.007060
v 0.054168 -0.016597 0.029275
v 0.054168 -0.002354 0.001651
v 0.054168 0.011890 0.029275
v 0.054168 0.011890 0.015462
v 0.054168 -0.016597 0.015463
v 0.054168 -0.016598 0.001651
v 0.054168 0.011890 0.001651
v 0.054168 -0.002354 0.015462
vn 0.0249 0.9997 -0.0000
vn 1.0000 -0.0000 -0.0000
vn -0.3057 -0.9521 -0.0000
vn -1.0000 -0.0000 -0.0000
vn -0.2890 -0.0000 -0.9573
vn -0.2913 -0.0000 0.9566
vn -0.1568 -0.0000 0.9876
vn -0.1224 0.0002 -0.9925
vn -0.1225 0.0002 -0.9925
vn -0.1225 -0.0001 -0.9925
vn -0.1225 -0.0003 -0.9925
vn -0.1627 -0.9867 -0.0000
vn -0.3706 -0.0000 0.9288
vn -0.2725 0.9622 -0.0000
vn -0.2911 0.9567 -0.0000
vn -0.1248 0.9922 -0.0000
vn 0.0963 -0.0000 -0.9953
vn 0.0543 -0.9985 -0.0000
vn -0.2225 -0.9749 -0.0000
vn 0.1076 -0.0001 -0.9942
vn 0.1076 0.0001 -0.9942
vn 0.1076 0.0002 -0.9942
vn -0.1223 -0.0000 -0.9925
vn 0.1077 -0.0000 -0.9942
vn 0.1077 -0.0001 -0.9942
vn -0.1685 -0.0000 -0.9857
vn -0.0315 -0.0000 0.9995
vn -0.3092 -0.0000 0.9510
vn -0.2327 -0.9725 -0.0000
vn -0.0722 0.9974 -0.0000
vt 0.562500 0.187500
vt 0.625000 0.187500
vt 0.625000 0.250000
vt 0.562500 0.250000
vt 0.562500 0.437500
vt 0.625000 0.437500
vt 0.625000 0.500000
vt 0.562500 0.500000
vt 0.562500 0.687500
vt 0.625000 0.687500
vt 0.625000 0.750000
vt 0.562500 0.750000
vt 0.562500 0.937500
vt 0.625000 0.937500
vt 0.625000 1.000000
vt 0.562500 1.000000
vt 0.312500 0.687500
vt 0.375000 0.687500
vt 0.375000 0.750000
vt 0.312500 0.750000
vt 0.812500 0.687500
vt 0.875000 0.687500
vt 0.875000 0.750000
vt 0.812500 0.750000
vt 0.687500 0.687500
vt 0.750000 0.687500
vt 0.750000 0.750000
vt 0.687500 0.750000
vt 0.687500 0.562500
vt 0.750000 0.562500
vt 0.750000 0.625000
vt 0.687500 0.625000
vt 0.812500 0.562500
vt 0.875000 0.562500
vt 0.875000 0.625000
vt 0.812500 0.625000
vt 0.187500 0.687500
vt 0.250000 0.687500
vt 0.250000 0.750000
vt 0.187500 0.750000
vt 0.187500 0.562500
vt 0.250000 0.562500
vt 0.250000 0.625000
vt 0.187500 0.625000
vt 0.312500 0.562500
vt 0.375000 0.562500
vt 0.375000 0.625000
vt 0.312500 0.625000
vt 0.437500 0.937500
vt 0.500000 0.937500
vt 0.500000 1.000000
vt 0.437500 1.000000
vt 0.437500 0.812500
vt 0.500000 0.812500
vt 0.500000 0.875000
vt 0.437500 0.875000
vt 0.562500 0.812500
vt 0.625000 0.812500
vt 0.625000 0.875000
vt 0.562500 0.875000
vt 0.437500 0.687500
vt 0.500000 0.687500
vt 0.500000 0.750000
vt 0.437500 0.750000
vt 0.437500 0.562500
vt 0.500000 0.562500
vt 0.500000 0.625000
vt 0.437500 0.625000
vt 0.562500 0.562500
vt 0.625000 0.562500
vt 0.625000 0.625000
vt 0.562500 0.625000
vt 0.437500 0.437500
vt 0.500000 0.437500
vt 0.500000 0.500000
vt 0.437500 0.500000
vt 0.437500 0.312500
vt 0.500000 0.312500
vt 0.500000 0.375000
vt 0.437500 0.375000
vt 0.812500 0.500000
vt 0.750000 0.500000
vt 0.437500 0.187500
vt 0.500000 0.187500
vt 0.500000 0.250000
vt 0.437500 0.250000
vt 0.437500 0.062500
vt 0.500000 0.062500
vt 0.500000 0.125000
vt 0.437500 0.125000
vt 0.562500 0.062500
vt 0.625000 0.062500
vt 0.625000 0.125000
vt 0.562500 0.125000
vt 0.500000 0.000000
vt 0.562500 0.000000
vt 0.625000 0.000000
vt 0.375000 0.062500
vt 0.375000 0.125000
vt 0.375000 0.000000
vt 0.437500 0.000000
vt 0.375000 0.187500
vt 0.375000 0.250000
vt 0.562500 0.312500
vt 0.625000 0.312500
vt 0.375000 0.312500
vt 0.375000 0.375000
vt 0.375000 0.437500
vt 0.375000 0.500000
vt 0.375000 0.812500
vt 0.375000 0.875000
vt 0.375000 0.937500
vt 0.375000 1.000000
vt 0.250000 0.500000
vt 0.312500 0.500000
vt 0.125000 0.562500
vt 0.125000 0.625000
vt 0.125000 0.500000
vt 0.187500 0.500000
vt 0.125000 0.687500
vt 0.125000 0.750000
vt 0.875000 0.500000
vt 0.687500 0.500000
vt 0.625000 0.375000
vt 0.562500 0.375000
s 1
usemtl None.001
f 98/1/1 29/2/1 4/3/1 42/4/1
f 97/5/2 32/6/2 8/7/2 45/8/2
f 96/9/3 35/10/3 6/11/3 48/12/3
f 95/13/4 38/14/4 2/15/4 28/16/4
f 94/17/5 46/18/5 5/19/5 37/20/5
f 93/21/6 41/22/6 2/23/6 38/24/6
f 92/25/6 51/26/6 20/27/6 50/28/6
f 91/29/7 52/30/7 21/31/7 53/32/7
f 90/33/7 29/34/7 11/35/7 54/36/7
f 89/37/5 55/38/5 19/39/5 49/40/5
f 88/41/8 56/42/9 22/43/9 57/44/8
f 87/45/10 34/46/11 16/47/11 58/48/10
f 86/49/4 59/50/4 10/51/4 40/52/4
f 85/53/4 60/54/4 23/55/4 61/56/4
f 84/57/4 50/58/4 20/59/4 62/60/4
f 83/61/3 63/62/3 18/63/3 36/64/3
f 82/65/12 64/66/12 24/67/12 65/68/12
f 81/69/12 47/70/12 17/71/12 66/72/12
f 80/73/2 67/74/2 15/75/2 33/76/2
f 79/77/2 68/78/2 25/79/2 69/80/2
f 44/81/13 14/82/13 70/82/13 101/81/13
f 77/83/1 71/84/1 12/85/1 30/86/1
f 76/87/14 72/88/14 26/89/14 73/90/14
f 75/91/14 41/92/14 11/93/14 74/94/14
f 72/88/14 75/91/14 74/94/14 26/89/14
f 10/95/15 28/96/15 75/91/15 72/88/15
f 28/96/15 2/97/15 41/92/15 75/91/15
f 27/98/14 76/87/14 73/90/14 9/99/14
f 1/100/15 40/101/15 76/87/15 27/98/15
f 40/101/15 10/95/15 72/88/15 76/87/15
f 39/102/1 77/83/1 30/86/1 3/103/1
f 9/99/16 73/90/16 77/83/16 39/102/16
f 73/90/16 26/89/16 71/84/16 77/83/16
f 25/79/17 68/78/17 105/78/17 100/79/17
f 12/85/2 42/4/2 78/104/2 68/78/2
f 42/4/2 4/3/2 44/105/2 78/104/2
f 31/106/2 79/77/2 69/80/2 13/107/2
f 3/103/2 30/86/2 79/77/2 31/106/2
f 30/86/2 12/85/2 68/78/2 79/77/2
f 43/108/2 80/73/2 33/76/2 7/109/2
f 13/107/2 69/80/2 80/73/2 43/108/2
f 69/80/2 25/79/2 67/74/2 80/73/2
f 64/66/12 81/69/12 66/72/12 24/67/12
f 15/75/18 45/8/18 81/69/18 64/66/18
f 45/8/18 8/7/18 47/70/18 81/69/18
f 34/46/12 82/65/12 65/68/12 16/47/12
f 7/109/18 33/76/18 82/65/18 34/46/18
f 33/76/18 15/75/18 64/66/18 82/65/18
f 46/18/3 83/61/3 36/64/3 5/19/3
f 16/47/19 65/68/19 83/61/19 46/18/19
f 65/68/19 24/67/19 63/62/19 83/61/19
f 60/54/4 84/57/4 62/60/4 23/55/4
f 18/63/4 48/12/4 84/57/4 60/54/4
f 48/12/4 6/11/4 50/58/4 84/57/4
f 37/110/4 85/53/4 61/56/4 19/111/4
f 5/19/4 36/64/4 85/53/4 37/110/4
f 36/64/4 18/63/4 60/54/4 85/53/4
f 49/112/4 86/49/4 40/52/4 1/113/4
f 19/111/4 61/56/4 86/49/4 49/112/4
f 61/56/4 23/55/4 59/50/4 86/49/4
f 56/42/9 87/45/10 58/48/10 22/43/9
f 13/114/20 43/115/21 87/45/21 56/42/20
f 43/115/21 7/109/22 34/46/22 87/45/21
f 39/116/23 88/41/8 57/44/8 9/117/23
f 3/118/24 31/119/25 88/41/25 39/116/24
f 31/119/25 13/114/20 56/42/20 88/41/25
f 27/120/5 89/37/5 49/40/5 1/121/5
f 9/117/26 57/44/26 89/37/26 27/120/26
f 57/44/26 22/43/26 55/38/26 89/37/26
f 52/30/7 90/33/7 54/36/7 21/31/7
f 14/82/27 44/81/27 90/33/27 52/30/27
f 44/81/27 4/122/27 29/34/27 90/33/27
f 47/70/7 91/29/7 53/32/7 17/71/7
f 8/7/27 32/123/27 91/29/27 47/70/27
f 32/123/27 14/82/27 52/30/27 91/29/27
f 35/10/6 92/25/6 50/28/6 6/11/6
f 17/71/28 53/32/28 92/25/28 35/10/28
f 53/32/28 21/31/28 51/26/28 92/25/28
f 51/26/6 93/21/6 38/24/6 20/27/6
f 21/31/28 54/36/28 93/21/28 51/26/28
f 54/36/28 11/35/28 41/22/28 93/21/28
f 55/38/5 94/17/5 37/20/5 19/39/5
f 22/43/26 58/48/26 94/17/26 55/38/26
f 58/48/26 16/47/26 46/18/26 94/17/26
f 59/50/4 95/13/4 28/16/4 10/51/4
f 23/55/4 62/60/4 95/13/4 59/50/4
f 62/60/4 20/59/4 38/14/4 95/13/4
f 63/62/3 96/9/3 48/12/3 18/63/3
f 24/67/19 66/72/19 96/9/19 63/62/19
f 66/72/19 17/71/19 35/10/19 96/9/19
f 67/74/2 97/5/2 45/8/2 15/75/2
f 97/5/29 67/74/29 104/74/29 103/5/29
f 78/104/30 44/105/30 101/105/30 102/104/30
f 71/84/1 98/1/1 42/4/1 12/85/1
f 26/89/16 74/94/16 98/1/16 71/84/16
f 74/94/16 11/93/16 29/2/16 98/1/16
f 32/6/29 97/5/29 103/5/29 99/6/29
f 68/78/30 78/104/30 102/104/30 105/78/30
f 67/74/17 25/79/17 100/79/17 104/74/17
f 14/82/13 32/123/13 99/123/13 70/82/13
f 102/104/2 101/105/2 70/124/2 106/125/2
f 106/125/2 70/124/2 99/6/2 103/5/2
f 105/78/2 102/104/2 106/125/2 100/79/2
f 100/79/2 106/125/2 103/5/2 104/74/2
